<svg xmlns="http://www.w3.org/2000/svg" xmlns:xlink="http://www.w3.org/1999/xlink" width="210" zoomAndPan="magnify" viewBox="0 0 157.5 44.999999" height="60" preserveAspectRatio="xMidYMid meet" version="1.0"><defs><g/><clipPath id="4a92882677"><path d="M 142 2 L 157 2 L 157 18 L 142 18 Z M 142 2 " clip-rule="nonzero"/></clipPath></defs><g fill="#0366b8" fill-opacity="1"><g transform="translate(-0.000000000000096985, 17.372621)"><g><path d="M 5.730469 -11.558594 L 0.359375 -7.359375 L 0.359375 -5.257812 L 5.730469 -1.058594 L 5.730469 -4.199219 L 2.894531 -6.296875 L 5.730469 -8.625 Z M 5.730469 -11.558594 "/></g></g></g><g fill="#0366b8" fill-opacity="1"><g transform="translate(6.089816, 17.372621)"><g><path d="M 0.832031 -14.714844 L 0.832031 0 L 5.464844 0 L 5.464844 -7.414062 L 7.28125 -2.097656 L 9.53125 -2.097656 L 11.347656 -7.414062 L 11.347656 0 L 15.964844 0 L 15.964844 -14.714844 L 11.347656 -14.714844 L 8.398438 -7.394531 L 5.464844 -14.714844 Z M 0.832031 -14.714844 "/></g></g></g><g fill="#0366b8" fill-opacity="1"><g transform="translate(22.884087, 17.372621)"><g><path d="M 3.914062 -14.714844 L 0.207031 0 L 4.972656 0 L 5.503906 -2.097656 L 10.042969 -2.097656 L 10.574219 0 L 15.339844 0 L 11.652344 -14.714844 Z M 6.394531 -5.675781 L 7.773438 -11.140625 L 9.15625 -5.675781 Z M 6.394531 -5.675781 "/></g></g></g><g fill="#0366b8" fill-opacity="1"><g transform="translate(38.430132, 17.372621)"><g><path d="M 0.832031 -14.714844 L 0.832031 0 L 5.464844 0 L 5.464844 -4.84375 L 5.710938 -4.84375 L 9.15625 0 L 14.808594 0 L 11.386719 -4.84375 L 11.558594 -4.84375 C 12.710938 -4.84375 13.65625 -5.789062 13.65625 -6.941406 L 13.65625 -12.617188 C 13.65625 -13.769531 12.710938 -14.714844 11.558594 -14.714844 Z M 5.464844 -8.398438 L 5.464844 -11.140625 L 8.625 -11.140625 C 8.851562 -11.140625 9.042969 -10.953125 9.042969 -10.722656 L 9.042969 -8.832031 C 9.042969 -8.605469 8.851562 -8.398438 8.625 -8.398438 Z M 5.464844 -8.398438 "/></g></g></g><g fill="#0366b8" fill-opacity="1"><g transform="translate(53.333157, 17.372621)"><g><path d="M 0.832031 -14.714844 L 0.832031 0 L 5.464844 0 L 5.464844 -14.714844 Z M 0.832031 -14.714844 "/></g></g></g><g fill="#0366b8" fill-opacity="1"><g transform="translate(59.631007, 17.372621)"><g><path d="M 3.914062 -14.714844 L 0.207031 0 L 4.972656 0 L 5.503906 -2.097656 L 10.042969 -2.097656 L 10.574219 0 L 15.339844 0 L 11.652344 -14.714844 Z M 6.394531 -5.675781 L 7.773438 -11.140625 L 9.15625 -5.675781 Z M 6.394531 -5.675781 "/></g></g></g><g fill="#bf0a26" fill-opacity="1"><g transform="translate(75.169542, 17.372621)"><g/></g></g><g fill="#ffffff" fill-opacity="1"><g transform="translate(81.46034, 17.372621)"><g><path d="M 0.832031 -14.714844 L 0.832031 0 L 5.464844 0 L 5.464844 -7.414062 L 7.28125 -2.097656 L 9.53125 -2.097656 L 11.347656 -7.414062 L 11.347656 0 L 15.964844 0 L 15.964844 -14.714844 L 11.347656 -14.714844 L 8.398438 -7.394531 L 5.464844 -14.714844 Z M 0.832031 -14.714844 "/></g></g></g><g fill="#ffffff" fill-opacity="1"><g transform="translate(98.254611, 17.372621)"><g><path d="M 3.914062 -14.714844 L 0.207031 0 L 4.972656 0 L 5.503906 -2.097656 L 10.042969 -2.097656 L 10.574219 0 L 15.339844 0 L 11.652344 -14.714844 Z M 6.394531 -5.675781 L 7.773438 -11.140625 L 9.15625 -5.675781 Z M 6.394531 -5.675781 "/></g></g></g><g fill="#ffffff" fill-opacity="1"><g transform="translate(113.800657, 17.372621)"><g><path d="M 0.832031 -14.714844 L 0.832031 0 L 5.464844 0 L 5.464844 -4.84375 L 5.710938 -4.84375 L 9.15625 0 L 14.808594 0 L 11.386719 -4.84375 L 11.558594 -4.84375 C 12.710938 -4.84375 13.65625 -5.789062 13.65625 -6.941406 L 13.65625 -12.617188 C 13.65625 -13.769531 12.710938 -14.714844 11.558594 -14.714844 Z M 5.464844 -8.398438 L 5.464844 -11.140625 L 8.625 -11.140625 C 8.851562 -11.140625 9.042969 -10.953125 9.042969 -10.722656 L 9.042969 -8.832031 C 9.042969 -8.605469 8.851562 -8.398438 8.625 -8.398438 Z M 5.464844 -8.398438 "/></g></g></g><g fill="#ffffff" fill-opacity="1"><g transform="translate(128.703681, 17.372621)"><g><path d="M 0.207031 -14.714844 L 0.207031 -11.140625 L 4.3125 -11.140625 L 4.3125 0 L 8.925781 0 L 8.925781 -11.140625 L 13.03125 -11.140625 L 13.03125 -14.714844 Z M 0.207031 -14.714844 "/></g></g></g><g clip-path="url(#4a92882677)"><g fill="#ffffff" fill-opacity="1"><g transform="translate(141.942403, 17.372621)"><g><path d="M 3.914062 -14.714844 L 0.207031 0 L 4.972656 0 L 5.503906 -2.097656 L 10.042969 -2.097656 L 10.574219 0 L 15.339844 0 L 11.652344 -14.714844 Z M 6.394531 -5.675781 L 7.773438 -11.140625 L 9.15625 -5.675781 Z M 6.394531 -5.675781 "/></g></g></g></g><g fill="#ffffff" fill-opacity="1"><g transform="translate(0.398049, 39.833019)"><g><path d="M 0.832031 -14.714844 L 0.832031 0 L 5.464844 0 L 5.464844 -4.84375 L 5.710938 -4.84375 L 9.15625 0 L 14.808594 0 L 11.386719 -4.84375 L 11.558594 -4.84375 C 12.710938 -4.84375 13.65625 -5.789062 13.65625 -6.941406 L 13.65625 -12.617188 C 13.65625 -13.769531 12.710938 -14.714844 11.558594 -14.714844 Z M 5.464844 -8.398438 L 5.464844 -11.140625 L 8.625 -11.140625 C 8.851562 -11.140625 9.042969 -10.953125 9.042969 -10.722656 L 9.042969 -8.832031 C 9.042969 -8.605469 8.851562 -8.398438 8.625 -8.398438 Z M 5.464844 -8.398438 "/></g></g></g><g fill="#ffffff" fill-opacity="1"><g transform="translate(15.301073, 39.833019)"><g><path d="M 3.914062 -14.714844 L 0.207031 0 L 4.972656 0 L 5.503906 -2.097656 L 10.042969 -2.097656 L 10.574219 0 L 15.339844 0 L 11.652344 -14.714844 Z M 6.394531 -5.675781 L 7.773438 -11.140625 L 9.15625 -5.675781 Z M 6.394531 -5.675781 "/></g></g></g><g fill="#ffffff" fill-opacity="1"><g transform="translate(30.847119, 39.833019)"><g><path d="M 0.832031 -14.714844 L 0.832031 0 L 5.464844 0 L 5.464844 -7.414062 L 7.28125 -2.097656 L 9.53125 -2.097656 L 11.347656 -7.414062 L 11.347656 0 L 15.964844 0 L 15.964844 -14.714844 L 11.347656 -14.714844 L 8.398438 -7.394531 L 5.464844 -14.714844 Z M 0.832031 -14.714844 "/></g></g></g><g fill="#ffffff" fill-opacity="1"><g transform="translate(47.641389, 39.833019)"><g><path d="M 0.832031 -14.714844 L 0.832031 0 L 5.464844 0 L 5.464844 -14.714844 Z M 0.832031 -14.714844 "/></g></g></g><g fill="#ffffff" fill-opacity="1"><g transform="translate(53.93924, 39.833019)"><g><path d="M 0.832031 -14.714844 L 0.832031 0 L 5.464844 0 L 5.464844 -4.84375 L 5.710938 -4.84375 L 9.15625 0 L 14.808594 0 L 11.386719 -4.84375 L 11.558594 -4.84375 C 12.710938 -4.84375 13.65625 -5.789062 13.65625 -6.941406 L 13.65625 -12.617188 C 13.65625 -13.769531 12.710938 -14.714844 11.558594 -14.714844 Z M 5.464844 -8.398438 L 5.464844 -11.140625 L 8.625 -11.140625 C 8.851562 -11.140625 9.042969 -10.953125 9.042969 -10.722656 L 9.042969 -8.832031 C 9.042969 -8.605469 8.851562 -8.398438 8.625 -8.398438 Z M 5.464844 -8.398438 "/></g></g></g><g fill="#ffffff" fill-opacity="1"><g transform="translate(68.842264, 39.833019)"><g><path d="M 0.832031 -14.714844 L 0.832031 0 L 12.710938 0 L 12.710938 -3.574219 L 5.464844 -3.574219 L 5.464844 -5.5625 L 10.609375 -5.5625 L 10.609375 -9.136719 L 5.464844 -9.136719 L 5.464844 -11.140625 L 12.710938 -11.140625 L 12.710938 -14.714844 Z M 0.832031 -14.714844 "/></g></g></g><g fill="#ffffff" fill-opacity="1"><g transform="translate(82.28903, 39.833019)"><g><path d="M 0.832031 -14.714844 L 0.832031 -11.140625 L 6.5625 -11.140625 L 0.832031 -2.515625 L 0.832031 0 L 12.824219 0 L 12.824219 -3.574219 L 7.09375 -3.574219 L 12.824219 -12.179688 L 12.824219 -14.714844 Z M 0.832031 -14.714844 "/></g></g></g><g fill="#0366b8" fill-opacity="1"><g transform="translate(95.940176, 39.833019)"><g><path d="M 4.9375 -14.714844 L 0.738281 0 L 3.519531 0 L 7.71875 -14.714844 Z M 4.9375 -14.714844 "/></g></g></g><g fill="#0366b8" fill-opacity="1"><g transform="translate(104.371247, 39.833019)"><g><path d="M 0.359375 -11.558594 L 0.359375 -8.625 L 3.195312 -6.296875 L 0.359375 -4.199219 L 0.359375 -1.058594 L 5.730469 -5.257812 L 5.730469 -7.359375 Z M 0.359375 -11.558594 "/></g></g></g></svg>